<svg xmlns="http://www.w3.org/2000/svg" fill="none" viewBox="0 0 24 24" stroke="currentColor" stroke-width="2">
  <path stroke-linecap="round" stroke-linejoin="round" d="M3 5a2 2 0 012-2h3.28a1 1 0 00.948.684l2.498 0.202c.459.036.788.418.728.88l-.89 5.970a1 1 0 00.122.499l2.645 2.645c1.364-1.364 2.829-2.829 3.535-3.535a1 1 0 001.414 0l1.414 1.414a1 1 0 010 1.414l-3.535 3.535c-.706.706-2.171 2.171-3.535 3.535l2.645 2.645a1 1 0 00.499.122l5.970-.89c.462-.06.844.269.88.728l.202 2.498a1 1 0 00.684.948A2 2 0 0121 19v-3a16 16 0 00-16-16z" />
</svg>
